<?xml version="1.0" standalone="no"?><!DOCTYPE svg PUBLIC "-//W3C//DTD SVG 1.1//EN" "http://www.w3.org/Graphics/SVG/1.1/DTD/svg11.dtd"><svg class="icon" width="200px" height="200.00px" viewBox="0 0 1024 1024" version="1.1" xmlns="http://www.w3.org/2000/svg"><path  d="M512 1024c-34.133333 0-68.266667 0-102.4-8.533333-128-34.133333-238.933333-102.4-315.733333-213.333334v8.533334c0 25.6-17.066667 42.666667-42.666667 42.666666S8.533333 836.266667 8.533333 810.666667V597.333333c0-25.6 17.066667-42.666667 42.666667-42.666666s42.666667 8.533333 42.666667 34.133333c34.133333 170.666667 162.133333 307.2 341.333333 341.333333 110.933333 25.6 221.866667 0 315.733333-68.266666s162.133333-162.133333 179.2-273.066667c8.533333-25.6 25.6-34.133333 51.2-34.133333 25.6 8.533333 34.133333 25.6 34.133334 51.2-25.6 136.533333-102.4 247.466667-213.333334 324.266666-85.333333 59.733333-187.733333 93.866667-290.133333 93.866667zM51.2 469.333333s-8.533333 0 0 0c-34.133333-8.533333-42.666667-25.6-42.666667-51.2C34.133333 281.6 110.933333 170.666667 221.866667 93.866667 341.333333 17.066667 477.866667-17.066667 605.866667 17.066667c136.533333 25.6 247.466667 102.4 324.266666 204.8v-8.533334c0-25.6 17.066667-42.666667 42.666667-42.666666s42.666667 17.066667 42.666667 42.666666V426.666667c0 25.6-17.066667 42.666667-42.666667 42.666666s-42.666667-8.533333-42.666667-34.133333c-34.133333-170.666667-162.133333-307.2-341.333333-341.333333-110.933333-25.6-221.866667 0-315.733333 68.266666S110.933333 324.266667 93.866667 435.2c-8.533333 17.066667-25.6 34.133333-42.666667 34.133333z" /></svg>